<svg xmlns="http://www.w3.org/2000/svg" fill="none" viewBox="0 0 24 24" id="Sun--Streamline-Flex-Remix" height="24" width="24">
  <desc>
    Sun Streamline Icon: https://streamlinehq.com
  </desc>
  <g id="sun--photos-light-camera-mode-brightness-sun-photo-full">
    <path id="Union" fill="#ffffff" fill-rule="evenodd" d="M11.491817142857142 2.4000171428571426c0.2520342857142857 -0.3428742857142857 0.7643314285714284 -0.3428742857142857 1.016365714285714 0 1.3621714285714284 1.8531771428571429 3.6452742857142852 2.7942171428571427 5.916274285714285 2.447262857142857 0.42428571428571427 -0.06481714285714286 0.7930285714285714 0.3040285714285714 0.7282285714285714 0.7282799999999999 -0.34697142857142854 2.270982857142857 0.5941714285714286 4.554102857142857 2.4473142857142856 5.916257142857143 0.34285714285714286 0.2520342857142857 0.34285714285714286 0.7643314285714284 0 1.016365714285714 -1.853142857142857 1.3621714285714284 -2.794285714285714 3.6452742857142852 -2.4473142857142856 5.916274285714285 0.0648 0.42428571428571427 -0.3039428571428571 0.7930285714285714 -0.7282285714285714 0.7282285714285714 -2.271 -0.34697142857142854 -4.554102857142857 0.5941714285714286 -5.916274285714285 2.4473142857142856 -0.2520342857142857 0.34285714285714286 -0.7643314285714284 0.34285714285714286 -1.016365714285714 0 -1.3621542857142857 -1.853142857142857 -3.6452742857142852 -2.794285714285714 -5.916257142857143 -2.4473142857142856 -0.42425142857142856 0.0648 -0.7930971428571428 -0.3039428571428571 -0.7282799999999999 -0.7282285714285714 0.34695428571428566 -2.271 -0.5940857142857143 -4.554102857142857 -2.447262857142857 -5.916274285714285 -0.3428742857142857 -0.2520342857142857 -0.3428742857142857 -0.7643314285714284 0 -1.016365714285714 1.8531771428571429 -1.3621714285714284 2.7942171428571427 -3.6452742857142852 2.447262857142857 -5.916257142857143 -0.06481714285714286 -0.42425142857142856 0.3040285714285714 -0.7930971428571428 0.7282799999999999 -0.7282799999999999 2.270982857142857 0.34695428571428566 4.554085714285715 -0.5940857142857143 5.916257142857143 -2.447262857142857ZM14.234794285714285 1.1308937142857143c-1.108337142857143 -1.5078582857142857 -3.3612514285714283 -1.5078582857142857 -4.469588571428571 0 -0.8883942857142856 1.2086434285714285 -2.3806285714285713 1.8250491428571425 -3.8660057142857145 1.5981119999999998 -1.85364 -0.2832 -3.4533942857142854 1.3165542857142856 -3.1701942857142855 3.1701942857142855 0.22691999999999996 1.4853771428571427 -0.3894685714285714 2.977611428571428 -1.5981119999999998 3.8660057142857145 -1.5078582857142857 1.108337142857143 -1.5078582857142857 3.3612514285714283 0 4.469588571428571 1.2086434285714285 0.8883942857142856 1.825032 2.3806285714285713 1.5981119999999998 3.8660057142857145 -0.2832 1.8536571428571427 1.3165542857142856 3.4534285714285713 3.1701942857142855 3.170228571428571 1.4853771428571427 -0.22697142857142855 2.977611428571428 0.38948571428571427 3.8660057142857145 1.5980571428571428 1.1083542857142856 1.5078857142857143 3.3612514285714283 1.5078857142857143 4.469588571428571 0 0.8883942857142856 -1.2085714285714284 2.3806285714285713 -1.8250285714285712 3.8660057142857145 -1.5980571428571428 1.8536571428571427 0.2832 3.4534285714285713 -1.3165714285714285 3.170228571428571 -3.170228571428571 -0.22697142857142855 -1.4853771428571427 0.38948571428571427 -2.977611428571428 1.5980571428571428 -3.8660057142857145 1.5078857142857143 -1.108337142857143 1.5078857142857143 -3.3612342857142856 0 -4.469588571428571 -1.2085714285714284 -0.8883942857142856 -1.8250285714285712 -2.3806285714285713 -1.5980571428571428 -3.8660057142857145 0.2832 -1.85364 -1.3165714285714285 -3.4533942857142854 -3.170228571428571 -3.1701942857142855 -1.4853771428571427 0.22693714285714284 -2.977611428571428 -0.3894685714285714 -3.8660057142857145 -1.5981119999999998ZM8.388102857142856 8.387794285714286c0.8622514285714284 -0.8622342857142857 2.1023657142857144 -1.2882171428571427 3.6122571428571426 -1.2882171428571427 1.5099085714285714 0 2.750022857142857 0.4259828571428571 3.6122571428571426 1.2882171428571427 0.8622514285714284 0.8622342857142857 1.2882342857142857 2.1023657142857144 1.2882342857142857 3.6122571428571426 0 1.5098914285714287 -0.4259828571428571 2.750022857142857 -1.2882342857142857 3.6122571428571426 -0.8622342857142857 0.8622342857142857 -2.1023485714285712 1.2882171428571427 -3.6122571428571426 1.2882171428571427 -1.5098914285714287 0 -2.7500057142857144 -0.4259828571428571 -3.6122571428571426 -1.2882171428571427 -0.8622342857142857 -0.8622342857142857 -1.2882171428571427 -2.1023657142857144 -1.2882171428571427 -3.6122571428571426 0 -1.5098914285714287 0.4259828571428571 -2.750022857142857 1.2882171428571427 -3.6122571428571426Z" clip-rule="evenodd" stroke-width="1.7143"></path>
  </g>
</svg>